<svg width="805" height="804" viewBox="0 0 805 804" fill="none" xmlns="http://www.w3.org/2000/svg">
<rect width="800" height="800" transform="translate(1 2)" fill="white"/>
<path d="M801 2H1V802H801V2Z" fill="white"/>
<path d="M801 2H1V802H801V2Z" fill="black"/>
<path d="M39.624 176.144C25.64 186.56 16.088 202.72 13.704 220C11.32 237.28 16.136 255.424 26.776 269.232" fill="white"/>
<path d="M39.624 176.144C25.64 186.56 16.088 202.72 13.704 220C11.32 237.28 16.136 255.424 26.776 269.232" stroke="black" stroke-width="2" stroke-miterlimit="10" stroke-linecap="round" stroke-linejoin="round"/>
<path d="M32.3761 289.328C32.0081 322.544 31.6561 355.76 31.2881 388.976Z" fill="white"/>
<path d="M32.3761 289.328C32.0081 322.544 31.6561 355.76 31.2881 388.976" stroke="black" stroke-width="2" stroke-miterlimit="10" stroke-linecap="round" stroke-linejoin="round"/>
<path d="M28.024 447.664C27.48 482.368 28.408 517.104 30.776 551.728Z" fill="white"/>
<path d="M28.024 447.664C27.48 482.368 28.408 517.104 30.776 551.728" stroke="black" stroke-width="2" stroke-miterlimit="10" stroke-linecap="round" stroke-linejoin="round"/>
<path d="M27.624 44.128C23.112 81.008 21.032 118.192 21.4 155.344Z" fill="white"/>
<path d="M27.624 44.128C23.112 81.008 21.032 118.192 21.4 155.344" stroke="black" stroke-width="2" stroke-miterlimit="10" stroke-linecap="round" stroke-linejoin="round"/>
<path d="M801 2H1V802H801V2Z" fill="black"/>
<path d="M801 2H1V802H801V2Z" fill="white"/>
<path d="M550.846 578.645C541.022 562.581 541.838 540.644 552.862 525.364C563.87 510.084 584.414 502.357 602.782 506.597C605.358 490.389 613.79 474.773 627.294 465.445C640.798 456.117 659.502 453.957 673.934 461.797C688.366 469.637 696.814 487.973 691.63 503.541C698.126 494.757 710.718 491.092 720.926 495.012C731.118 498.932 738.014 510.101 736.942 520.981C751.854 511.653 772.798 516.533 784.99 529.205C797.182 541.877 801.614 560.453 800.718 578.021C799.822 595.589 794.174 612.501 788.574 629.173C714.094 610.885 638.782 596.053 550.846 578.645Z" fill="white" stroke="black" stroke-width="2" stroke-miterlimit="10" stroke-linecap="round" stroke-linejoin="round"/>
<path d="M801 802C537.205 802.919 264.795 801.081 1.00002 802C0.99998 746.756 3.05875 689.769 1 635.155C256.971 575.365 531.99 565.355 801 611C801 676 801 737.756 801 802Z" fill="white" stroke="black" stroke-width="2" stroke-miterlimit="10" stroke-linecap="round" stroke-linejoin="round"/>
<path d="M70.6801 697.712C74.9521 696.096 79.3841 694.48 83.9121 694.8C88.4401 695.12 93.1281 697.904 94.4721 702.544C95.6241 706.512 93.9761 711.04 90.9681 713.68C87.9601 716.32 83.8481 717.216 79.9921 716.736C76.1361 716.272 72.4881 714.544 69.1601 712.416C70.2801 714.672 71.8961 716.672 72.9841 719.008C74.0721 721.344 74.5841 724.096 73.8801 726.592C73.2561 728.768 71.7681 730.544 70.0401 731.856C65.3201 735.408 58.5361 735.424 53.8001 731.92C49.0641 728.416 46.6961 721.616 48.1361 715.648C47.6561 719.936 45.7041 724.96 42.1041 728.096C38.5041 731.232 33.2561 732.224 29.0481 730.16C24.8241 728.112 22.0401 722.896 22.9041 718.032C23.8321 712.832 28.2161 709.232 32.4721 706.528C29.0961 707.344 25.8321 708.752 22.3921 709.376C18.9521 710 15.2721 709.76 12.2001 708C9.12808 706.24 6.79208 702.768 6.84008 699.04C6.90408 694.992 9.78408 691.408 13.3201 689.952C16.8561 688.496 20.8561 688.944 24.4241 690.304C27.9921 691.664 31.1761 693.92 33.8961 695.616C31.1441 692.08 28.2161 687.856 29.0001 683.328C29.6081 679.792 32.4561 677.088 35.5441 675.68C39.7361 673.76 44.8721 673.84 48.6321 676.592C52.3921 679.344 54.3281 684.976 52.4721 689.44C53.3521 685.088 55.6561 681.008 59.0801 678.48C62.5041 675.952 67.0641 675.104 70.9841 676.624C74.9041 678.16 77.9601 682.16 78.2161 686.608C78.4881 691.056 75.7041 695.6 70.6801 697.712Z" fill="white" stroke="black" stroke-width="2" stroke-miterlimit="10" stroke-linecap="round" stroke-linejoin="round"/>
<path d="M37.7248 700.965C38.1424 697.322 45.2416 695.142 53.5808 696.096C61.9216 697.051 68.344 700.778 67.9264 704.421C67.5088 708.064 60.4112 710.243 52.0704 709.29C43.7312 708.336 37.3072 704.608 37.7248 700.965Z" fill="white" stroke="black" stroke-width="2" stroke-miterlimit="10" stroke-linecap="round" stroke-linejoin="round"/>
<path d="M742.632 725.76C746.52 722.864 750.552 719.92 755.224 718.912C759.88 717.888 765.368 719.296 767.976 723.552C770.2 727.2 769.768 732.224 767.448 735.776C765.128 739.312 761.208 741.44 757.192 742.112C753.16 742.784 749.032 742.128 745.08 740.992C746.824 742.928 749 744.464 750.728 746.48C752.456 748.512 753.72 751.12 753.672 753.84C753.64 756.208 752.616 758.448 751.208 760.272C747.4 765.232 740.552 767.28 734.824 765.168C729.096 763.056 724.872 756.928 724.712 750.496C725.368 754.944 724.76 760.576 721.976 764.784C719.192 768.992 714.152 771.552 709.336 770.736C704.52 769.92 700.296 765.536 699.848 760.384C699.368 754.88 702.84 749.968 706.424 745.984C703.224 747.808 700.312 750.192 697 751.84C693.688 753.472 689.912 754.336 686.328 753.488C682.744 752.64 679.448 749.84 678.504 746.08C677.48 742 679.416 737.536 682.6 735.024C685.768 732.528 689.944 731.76 693.912 732.08C697.88 732.4 701.704 733.712 704.92 734.608C701.176 731.872 697.096 728.512 696.664 723.728C696.328 719.984 698.472 716.432 701.208 714.096C704.936 710.928 710.136 709.472 714.68 711.12C719.224 712.768 722.696 717.856 722.024 722.88C721.736 718.24 722.968 713.472 725.752 709.904C728.536 706.336 732.904 704.128 737.272 704.512C741.64 704.88 745.8 708 747.272 712.384C748.744 716.768 747.128 722.16 742.632 725.76Z" fill="white" stroke="black" stroke-width="2" stroke-miterlimit="10" stroke-linecap="round" stroke-linejoin="round"/>
<path d="M724.739 729.275C733.418 727.702 741.005 729.478 741.688 733.243C742.371 737.008 735.89 741.336 727.211 742.909C718.533 744.482 710.946 742.706 710.262 738.941C709.579 735.176 716.061 730.85 724.739 729.275Z" fill="white" stroke="black" stroke-width="2" stroke-miterlimit="10" stroke-linecap="round" stroke-linejoin="round"/>
<path d="M736.296 634.768C740.056 633.488 743.944 632.208 747.896 632.432C751.848 632.656 755.912 634.768 757.016 638.352C757.96 641.408 756.472 644.928 753.816 646.992C751.16 649.056 747.56 649.776 744.184 649.44C740.824 649.104 737.656 647.792 734.776 646.176C735.736 647.92 737.112 649.456 738.024 651.248C738.936 653.056 739.352 655.168 738.696 657.104C738.12 658.784 736.808 660.176 735.272 661.2C731.112 663.968 725.176 664.048 721.08 661.36C716.984 658.672 715.016 653.44 716.344 648.816C715.864 652.128 714.104 656.032 710.92 658.48C707.736 660.928 703.144 661.728 699.48 660.16C695.816 658.592 693.448 654.592 694.264 650.816C695.144 646.784 699.016 643.984 702.776 641.856C699.816 642.512 696.936 643.632 693.928 644.128C690.92 644.624 687.704 644.464 685.048 643.12C682.392 641.776 680.392 639.104 680.488 636.224C680.6 633.104 683.16 630.304 686.264 629.152C689.368 628.016 692.872 628.32 695.96 629.36C699.048 630.4 701.8 632.112 704.168 633.408C701.816 630.688 699.304 627.44 700.056 623.936C700.632 621.2 703.144 619.088 705.88 617.968C709.576 616.464 714.056 616.48 717.304 618.592C720.552 620.704 722.168 625.04 720.488 628.496C721.32 625.12 723.384 621.952 726.408 619.968C729.432 617.984 733.432 617.296 736.824 618.464C740.216 619.616 742.84 622.704 743 626.144C743.16 629.584 740.712 633.12 736.296 634.768Z" fill="white" stroke="black" stroke-width="2" stroke-miterlimit="10" stroke-linecap="round" stroke-linejoin="round"/>
<path d="M707.506 637.602C707.746 634.766 713.843 632.966 721.125 633.582C728.406 634.198 734.117 636.995 733.877 639.83C733.637 642.666 727.539 644.466 720.258 643.85C712.976 643.235 707.267 640.437 707.506 637.602Z" fill="white" stroke="black" stroke-width="2" stroke-miterlimit="10" stroke-linecap="round" stroke-linejoin="round"/>
<path d="M387.736 750.688C392.344 748.384 397.112 746.064 402.232 745.808C407.352 745.552 412.984 747.888 415.08 752.656C416.872 756.736 415.608 761.792 412.568 765.008C409.528 768.224 405.016 769.728 400.632 769.744C396.232 769.76 391.928 768.4 387.896 766.592C389.448 768.848 391.512 770.768 393.032 773.12C394.552 775.472 395.48 778.336 395 781.104C394.584 783.504 393.144 785.616 391.352 787.232C386.504 791.648 378.888 792.592 373.112 789.488C367.336 786.384 363.816 779.44 364.68 772.864C364.68 777.504 363.144 783.136 359.496 786.96C355.864 790.784 350.088 792.544 345.08 790.928C340.072 789.296 336.264 784.128 336.616 778.8C336.984 773.12 341.464 768.704 345.912 765.232C342.216 766.56 338.728 768.512 334.936 769.616C331.144 770.736 326.984 770.976 323.304 769.504C319.624 768.032 316.552 764.64 316.136 760.656C315.688 756.336 318.472 752.112 322.248 750.08C326.024 748.064 330.6 747.984 334.76 748.976C338.92 749.968 342.808 751.936 346.088 753.376C342.536 749.968 338.712 745.856 339.016 740.928C339.256 737.072 342.088 733.808 345.4 731.872C349.88 729.264 355.64 728.656 360.232 731.088C364.824 733.52 367.704 739.28 366.2 744.288C366.632 739.52 368.712 734.864 372.232 731.696C375.752 728.528 380.776 727.008 385.368 728.128C389.96 729.232 393.912 733.104 394.76 737.808C395.608 742.512 393.112 747.776 387.736 750.688Z" fill="white" stroke="black" stroke-width="2" stroke-miterlimit="10" stroke-linecap="round" stroke-linejoin="round"/>
<path d="M368.253 751.227C377.75 751.102 385.493 754.202 385.546 758.152C385.598 762.101 377.941 765.405 368.442 765.53C358.944 765.654 351.202 762.555 351.149 758.605C351.098 754.656 358.755 751.352 368.253 751.227Z" fill="white" stroke="black" stroke-width="2" stroke-miterlimit="10" stroke-linecap="round" stroke-linejoin="round"/>
<path d="M590.6 680C590.6 680 644.392 702.864 652.136 686.464C660.616 668.528 631.16 664.48 619.224 664.912L590.6 680Z" fill="white" stroke="black" stroke-width="2" stroke-miterlimit="10" stroke-linecap="round" stroke-linejoin="round"/>
<path d="M640.696 692.32C642.104 687.68 640.088 682.24 636.008 679.632" stroke="black" stroke-width="2" stroke-miterlimit="10" stroke-linecap="round" stroke-linejoin="round"/>
<path d="M650.568 687.52C650.728 683.056 648.344 678.576 644.52 676.24" stroke="black" stroke-width="2" stroke-miterlimit="10" stroke-linecap="round" stroke-linejoin="round"/>
<path d="M78.3523 11.4642C78.3523 11.4642 49.7702 433.433 86 624.455L5 627L19.0307 7L78.3523 11.4642Z" fill="white" stroke="black" stroke-width="2" stroke-miterlimit="10" stroke-linecap="round" stroke-linejoin="round"/>
<path d="M274.038 597.008C282.47 571.264 273.366 540.736 252.198 523.824C231.046 506.912 199.27 504.736 176.006 518.608C177.366 507.552 170.518 495.984 160.166 491.856C149.814 487.728 136.902 491.408 130.262 500.368C116.534 481.28 86.9176 476.112 67.5416 489.408C48.1656 502.72 42.3576 532.224 55.2376 551.888C40.5976 548 23.7336 555.776 17.2056 569.44C10.6776 583.104 15.2056 601.12 27.4136 610.064C15.4776 605.424 2.42163 617.616 1.15763 630.368C-0.106374 643.12 6.45363 655.2 12.8856 666.272C97.7816 644.208 182.678 622.144 274.038 597.008Z" fill="white" stroke="black" stroke-width="2" stroke-miterlimit="10" stroke-linecap="round" stroke-linejoin="round"/>
<path d="M547.368 667.392C547.368 667.392 520.792 663.104 513.064 676.128C506.456 687.248 513.016 693.536 531.608 692.208C550.216 690.88 571.592 681.84 571.592 681.84L547.368 667.392Z" fill="white" stroke="black" stroke-width="2" stroke-miterlimit="10" stroke-linecap="round" stroke-linejoin="round"/>
<path d="M525.992 692.464C525.128 687.888 527.064 682.88 530.792 680.08" stroke="black" stroke-width="2" stroke-miterlimit="10" stroke-linecap="round" stroke-linejoin="round"/>
<path d="M514.28 689.168C514.072 684.528 516.712 679.888 520.824 677.712" stroke="black" stroke-width="2" stroke-miterlimit="10" stroke-linecap="round" stroke-linejoin="round"/>
<path d="M638.072 632.56C638.072 632.56 680.584 617.008 674.104 603.2C668.296 590.848 636.744 598.192 636.744 598.192" fill="white"/>
<path d="M638.072 632.56C638.072 632.56 680.584 617.008 674.104 603.2C668.296 590.848 636.744 598.192 636.744 598.192" stroke="black" stroke-width="2" stroke-miterlimit="10" stroke-linecap="round" stroke-linejoin="round"/>
<path d="M540.808 633.728C544.024 626.144 539.8 616.288 532.088 613.376C524.376 610.48 514.696 615.104 512.12 622.928C512.504 620.08 508.808 618.048 506.104 619.04C503.416 620.016 501.816 622.8 500.904 625.52C497.816 634.704 500.264 645.52 506.984 652.496C513.704 659.472 524.424 662.304 533.72 659.568C534.536 650.32 537.464 641.6 540.808 633.728Z" fill="white" stroke="black" stroke-width="2" stroke-miterlimit="10" stroke-linecap="round" stroke-linejoin="round"/>
<path d="M556.616 589.728C556.616 589.728 553.912 606.56 545.32 618.544C540.456 625.344 526.232 639.504 527.88 655.104C529.752 672.88 556.152 681.824 580.616 683.216C605.08 684.608 628.664 676.064 637.672 663.2C647.464 649.2 639.976 598.688 639.976 598.688L556.616 589.728Z" fill="white" stroke="black" stroke-width="2" stroke-miterlimit="10" stroke-linecap="round" stroke-linejoin="round"/>
<path d="M529.944 567.728C528.488 535.952 562.44 500.528 603.736 498.64C645.048 496.752 677.976 532.272 681.736 563.952C685.48 595.536 659.4 601.04 618.088 602.928C576.792 604.816 531.4 599.504 529.944 567.728Z" fill="white" stroke="black" stroke-width="2" stroke-miterlimit="10" stroke-linecap="round" stroke-linejoin="round"/>
<path d="M654.056 518.128C654.056 518.128 672.232 480.928 664.552 440.64C657.56 403.92 610.312 397.824 612.76 433.232C615.512 472.848 616.488 500.992 616.488 500.992" fill="white"/>
<path d="M654.056 518.128C654.056 518.128 672.232 480.928 664.552 440.64C657.56 403.92 610.312 397.824 612.76 433.232C615.512 472.848 616.488 500.992 616.488 500.992" stroke="black" stroke-width="2" stroke-miterlimit="10" stroke-linecap="round" stroke-linejoin="round"/>
<path d="M631.368 507.408L643.976 512.256C643.976 512.256 653.208 479.872 647.832 462.064C644.056 449.584 631.192 452.464 631.88 470.384C632.504 486.704 631.368 507.408 631.368 507.408Z" fill="white" stroke="black" stroke-width="2" stroke-miterlimit="10" stroke-linecap="round" stroke-linejoin="round"/>
<path d="M583.064 505.12C583.064 505.12 570.184 455.456 548.52 436.048C529.304 418.832 492.696 442.88 510.248 473.728C527.352 503.792 551.528 525.552 551.528 525.552" fill="white"/>
<path d="M583.064 505.12C583.064 505.12 570.184 455.456 548.52 436.048C529.304 418.832 492.696 442.88 510.248 473.728C527.352 503.792 551.528 525.552 551.528 525.552" stroke="black" stroke-width="2" stroke-miterlimit="10" stroke-linecap="round" stroke-linejoin="round"/>
<path d="M559.32 522.368L570.568 515.872C570.568 515.872 559.72 484.576 552.264 476.192C543.672 466.528 532.088 474.192 538.056 485.344C546.824 501.68 559.32 522.368 559.32 522.368Z" fill="white" stroke="black" stroke-width="2" stroke-miterlimit="10" stroke-linecap="round" stroke-linejoin="round"/>
<path d="M622.616 551.44C622.616 549.344 626.104 547.632 630.424 547.632C634.744 547.632 638.232 549.328 638.232 551.44C638.232 552.512 636.584 553.648 634.968 554.496C633.064 555.504 630.824 555.648 628.776 554.976C626.072 554.096 622.616 552.72 622.616 551.44Z" fill="white" stroke="black" stroke-width="2" stroke-miterlimit="10" stroke-linecap="round" stroke-linejoin="round"/>
<path d="M584.488 559.872C584.472 555.984 586.52 552.16 589.752 550.016C592.984 547.872 597.32 547.504 600.888 549.04C604.456 550.592 607.128 554 607.784 557.84" fill="white"/>
<path d="M584.488 559.872C584.472 555.984 586.52 552.16 589.752 550.016C592.984 547.872 597.32 547.504 600.888 549.04C604.456 550.592 607.128 554 607.784 557.84" stroke="black" stroke-width="2" stroke-miterlimit="10" stroke-linecap="round" stroke-linejoin="round"/>
<path d="M647.128 555.392C647.112 551.504 649.08 547.68 652.2 545.536C655.32 543.392 659.48 543.024 662.904 544.56C666.328 546.112 668.904 549.52 669.528 553.36" fill="white"/>
<path d="M647.128 555.392C647.112 551.504 649.08 547.68 652.2 545.536C655.32 543.392 659.48 543.024 662.904 544.56C666.328 546.112 668.904 549.52 669.528 553.36" stroke="black" stroke-width="2" stroke-miterlimit="10" stroke-linecap="round" stroke-linejoin="round"/>
<path d="M615.608 563.152C617.8 565.328 621 566.336 623.992 565.792C626.968 565.248 629.656 563.168 631 560.336" fill="white"/>
<path d="M615.608 563.152C617.8 565.328 621 566.336 623.992 565.792C626.968 565.248 629.656 563.168 631 560.336" stroke="black" stroke-width="2" stroke-miterlimit="10" stroke-linecap="round" stroke-linejoin="round"/>
<path d="M645.208 563.152C643.192 565.328 640.232 566.336 637.48 565.792C634.728 565.248 632.248 563.168 631 560.336" fill="white"/>
<path d="M645.208 563.152C643.192 565.328 640.232 566.336 637.48 565.792C634.728 565.248 632.248 563.168 631 560.336" stroke="black" stroke-width="2" stroke-miterlimit="10" stroke-linecap="round" stroke-linejoin="round"/>
<path d="M617.048 564.592C617.048 564.592 615.16 586.208 626.888 588.016C640.216 590.08 641.8 565.424 641.8 565.424" stroke="black" stroke-width="2" stroke-miterlimit="10" stroke-linecap="round" stroke-linejoin="round"/>
<path d="M671.144 567.536C675.456 567.536 678.952 565.208 678.952 562.336C678.952 559.464 675.456 557.136 671.144 557.136C666.832 557.136 663.336 559.464 663.336 562.336C663.336 565.208 666.832 567.536 671.144 567.536Z" stroke="black" stroke-miterlimit="10" stroke-linecap="round"/>
<path d="M577.48 572.736C583.445 572.736 588.28 570.408 588.28 567.536C588.28 564.664 583.445 562.336 577.48 562.336C571.515 562.336 566.68 564.664 566.68 567.536C566.68 570.408 571.515 572.736 577.48 572.736Z" stroke="black" stroke-miterlimit="10" stroke-linecap="round"/>
<path d="M575.784 606.8C575.784 606.8 606.248 593.456 615.864 598.896C631.224 607.616 602.2 625.248 593.112 630.976" fill="white"/>
<path d="M575.784 606.8C575.784 606.8 606.248 593.456 615.864 598.896C631.224 607.616 602.2 625.248 593.112 630.976" stroke="black" stroke-width="2" stroke-miterlimit="10" stroke-linecap="round" stroke-linejoin="round"/>
<path d="M617.448 600.752C613.272 599.696 608.648 600.656 605.224 603.28" stroke="black" stroke-width="2" stroke-miterlimit="10" stroke-linecap="round" stroke-linejoin="round"/>
<path d="M619.208 607.504C615.576 607.12 611.816 608.112 608.824 610.208" stroke="black" stroke-width="2" stroke-miterlimit="10" stroke-linecap="round" stroke-linejoin="round"/>
<path d="M188.168 680.016C188.168 680.016 133.56 705.712 125.704 687.28C117.096 667.12 147 662.576 159.112 663.056L188.168 680.016Z" fill="white" stroke="black" stroke-width="2" stroke-miterlimit="10" stroke-linecap="round" stroke-linejoin="round"/>
<path d="M137.32 693.872C135.896 688.672 137.944 682.544 142.088 679.616" stroke="black" stroke-width="2" stroke-miterlimit="10" stroke-linecap="round" stroke-linejoin="round"/>
<path d="M127.304 688.464C127.128 683.44 129.56 678.416 133.432 675.792" stroke="black" stroke-width="2" stroke-miterlimit="10" stroke-linecap="round" stroke-linejoin="round"/>
<path d="M223.976 667.2C223.976 667.2 249.96 664.176 256.472 679.024C262.04 691.712 255.24 698.224 237.384 695.552C219.528 692.88 199.528 681.552 199.528 681.552L223.976 667.2Z" fill="white" stroke="black" stroke-width="2" stroke-miterlimit="10" stroke-linecap="round" stroke-linejoin="round"/>
<path d="M242.792 696.208C243.976 691.216 242.456 685.568 239.064 682.256" stroke="black" stroke-width="2" stroke-miterlimit="10" stroke-linecap="round" stroke-linejoin="round"/>
<path d="M254.328 693.328C254.872 688.24 252.648 682.944 248.856 680.288" stroke="black" stroke-width="2" stroke-miterlimit="10" stroke-linecap="round" stroke-linejoin="round"/>
<path d="M240.2 633.344C236.984 625.76 241.208 615.904 248.92 612.992C256.632 610.096 266.312 614.72 268.888 622.544C268.504 619.696 272.2 617.664 274.904 618.656C277.592 619.632 279.192 622.416 280.104 625.136C283.192 634.32 280.744 645.136 274.024 652.112C267.304 659.088 256.584 661.92 247.288 659.184C246.456 649.936 243.528 641.216 240.2 633.344Z" fill="white" stroke="black" stroke-width="2" stroke-miterlimit="10" stroke-linecap="round" stroke-linejoin="round"/>
<path d="M224.392 589.36C224.392 589.36 227.096 606.192 235.688 618.176C240.552 624.976 254.776 639.136 253.128 654.736C251.256 672.512 224.856 681.456 200.392 682.848C175.928 684.24 152.344 675.696 143.336 662.832C133.544 648.832 141.032 598.32 141.032 598.32L224.392 589.36Z" fill="white" stroke="black" stroke-width="2" stroke-miterlimit="10" stroke-linecap="round" stroke-linejoin="round"/>
<path d="M252.808 571.504C256.344 539.888 224.776 502.32 183.688 497.728C142.6 493.136 107.416 526.432 101.592 557.792C95.7841 589.072 121.464 596.256 162.552 600.848C203.64 605.456 249.272 603.12 252.808 571.504Z" fill="white" stroke="black" stroke-width="2" stroke-miterlimit="10" stroke-linecap="round" stroke-linejoin="round"/>
<path d="M131.432 515.36C131.432 515.36 111.704 477.152 118.136 436.624C123.992 399.712 172.2 393.856 170.856 429.328C169.336 469.008 170.136 501.648 170.136 501.648" fill="white"/>
<path d="M131.432 515.36C131.432 515.36 111.704 477.152 118.136 436.624C123.992 399.712 172.2 393.856 170.856 429.328C169.336 469.008 170.136 501.648 170.136 501.648" stroke="black" stroke-width="2" stroke-miterlimit="10" stroke-linecap="round" stroke-linejoin="round"/>
<path d="M154.552 504.064L142.104 509.296C142.104 509.296 131.864 477.2 136.696 459.248C140.088 446.656 153.032 449.136 152.904 467.072C152.776 483.392 154.552 504.064 154.552 504.064Z" fill="white" stroke="black" stroke-width="2" stroke-miterlimit="10" stroke-linecap="round" stroke-linejoin="round"/>
<path d="M201.208 504.736C201.208 504.736 214.088 455.072 235.752 435.664C254.968 418.448 291.576 442.496 274.024 473.344C256.92 503.408 232.744 525.168 232.744 525.168" fill="white"/>
<path d="M201.208 504.736C201.208 504.736 214.088 455.072 235.752 435.664C254.968 418.448 291.576 442.496 274.024 473.344C256.92 503.408 232.744 525.168 232.744 525.168" stroke="black" stroke-width="2" stroke-miterlimit="10" stroke-linecap="round" stroke-linejoin="round"/>
<path d="M224.952 521.984L213.704 515.488C213.704 515.488 224.552 484.192 232.008 475.808C240.6 466.144 252.184 473.808 246.216 484.96C237.448 501.296 224.952 521.984 224.952 521.984Z" fill="white" stroke="black" stroke-width="2" stroke-miterlimit="10" stroke-linecap="round" stroke-linejoin="round"/>
<path d="M161.4 549.184C161.544 547.088 158.168 545.168 153.864 544.88C149.56 544.592 145.976 546.064 145.832 548.16C145.768 549.232 147.336 550.464 148.888 551.424C150.728 552.56 152.936 552.848 155.032 552.32C157.768 551.616 161.32 550.464 161.4 549.184Z" fill="white" stroke="black" stroke-width="2" stroke-miterlimit="10" stroke-linecap="round" stroke-linejoin="round"/>
<path d="M167.624 561.344C165.288 563.376 162.024 564.16 159.096 563.424C156.152 562.688 153.608 560.432 152.456 557.52" fill="white"/>
<path d="M167.624 561.344C165.288 563.376 162.024 564.16 159.096 563.424C156.152 562.688 153.608 560.432 152.456 557.52" stroke="black" stroke-width="2" stroke-miterlimit="10" stroke-linecap="round" stroke-linejoin="round"/>
<path d="M138.088 559.408C139.96 561.712 142.856 562.912 145.624 562.544C148.392 562.176 151.016 560.256 152.44 557.536" fill="white"/>
<path d="M138.088 559.408C139.96 561.712 142.856 562.912 145.624 562.544C148.392 562.176 151.016 560.256 152.44 557.536" stroke="black" stroke-width="2" stroke-miterlimit="10" stroke-linecap="round" stroke-linejoin="round"/>
<path d="M166.088 562.672C166.088 562.672 166.552 584.368 154.744 585.408C141.304 586.592 141.336 561.888 141.336 561.888" stroke="black" stroke-width="2" stroke-miterlimit="10" stroke-linecap="round" stroke-linejoin="round"/>
<path d="M107.2 554.339C107.757 551.522 111.805 549.947 116.245 550.824C120.683 551.701 123.83 554.694 123.275 557.512C122.718 560.33 118.67 561.902 114.23 561.027C109.79 560.152 106.643 557.157 107.2 554.339Z" stroke="black" stroke-miterlimit="10" stroke-linecap="round"/>
<path d="M194.634 567.49C194.821 564.624 199.798 562.616 205.75 563.006C211.702 563.397 216.376 566.035 216.187 568.902C216 571.768 211.022 573.776 205.07 573.386C199.118 572.995 194.445 570.357 194.634 567.49Z" stroke="black" stroke-miterlimit="10" stroke-linecap="round"/>
<path d="M191.992 563.456C196.41 563.456 199.992 560.082 199.992 555.92C199.992 551.758 196.41 548.384 191.992 548.384C187.574 548.384 183.992 551.758 183.992 555.92C183.992 560.082 187.574 563.456 191.992 563.456Z" fill="black"/>
<path d="M190.248 556.944C192.051 556.944 193.512 555.569 193.512 553.872C193.512 552.175 192.051 550.8 190.248 550.8C188.445 550.8 186.984 552.175 186.984 553.872C186.984 555.569 188.445 556.944 190.248 556.944Z" fill="white"/>
<path d="M130.296 552.384C134.714 552.384 138.296 549.01 138.296 544.848C138.296 540.686 134.714 537.312 130.296 537.312C125.878 537.312 122.296 540.686 122.296 544.848C122.296 549.01 125.878 552.384 130.296 552.384Z" fill="black"/>
<path d="M128.536 545.856C130.339 545.856 131.8 544.481 131.8 542.784C131.8 541.087 130.339 539.712 128.536 539.712C126.733 539.712 125.272 541.087 125.272 542.784C125.272 544.481 126.733 545.856 128.536 545.856Z" fill="white"/>
<path d="M212.984 609.472C212.984 609.472 188.664 584.944 177.496 588.352C159.64 593.808 181.048 622.864 187.656 632.192" fill="white"/>
<path d="M212.984 609.472C212.984 609.472 188.664 584.944 177.496 588.352C159.64 593.808 181.048 622.864 187.656 632.192" stroke="black" stroke-width="2" stroke-miterlimit="10" stroke-linecap="round" stroke-linejoin="round"/>
<path d="M175.304 590C179.672 590.032 183.768 592.544 186.072 596.592" stroke="black" stroke-width="2" stroke-miterlimit="10" stroke-linecap="round" stroke-linejoin="round"/>
<path d="M171.176 597.264C174.792 597.92 178.024 600.176 180.12 603.504" stroke="black" stroke-width="2" stroke-miterlimit="10" stroke-linecap="round" stroke-linejoin="round"/>
<path d="M139.496 640.592C139.496 640.592 126.408 590.16 141.656 589.344C155.288 588.608 163.736 612.112 163.736 612.112" fill="white"/>
<path d="M139.496 640.592C139.496 640.592 126.408 590.16 141.656 589.344C155.288 588.608 163.736 612.112 163.736 612.112" stroke="black" stroke-width="2" stroke-miterlimit="10" stroke-linecap="round" stroke-linejoin="round"/>
<path d="M184.36 346.256C184.36 346.256 182.808 365.824 189.768 368.656C196.712 371.488 207.896 352.928 206.904 346.48C205.912 340.016 193.48 331.408 193.48 331.408L184.36 346.256Z" fill="white" stroke="black" stroke-width="2" stroke-miterlimit="10" stroke-linecap="round" stroke-linejoin="round"/>
<path d="M186.584 364.736C195.176 359.504 200.92 350.064 201.512 340.192" stroke="black" stroke-width="2" stroke-miterlimit="10" stroke-linecap="round" stroke-linejoin="round"/>
<path d="M188.136 335.264C188.136 335.264 154.328 333.952 148.664 341.872C143.384 349.232 145.56 359.76 151.464 363.312C160.888 368.96 184.36 345.568 184.36 345.568" fill="white"/>
<path d="M188.136 335.264C188.136 335.264 154.328 333.952 148.664 341.872C143.384 349.232 145.56 359.76 151.464 363.312C160.888 368.96 184.36 345.568 184.36 345.568" stroke="black" stroke-width="2" stroke-miterlimit="10" stroke-linecap="round" stroke-linejoin="round"/>
<path d="M158.344 337.36C155.048 345.36 156.664 355.104 162.392 361.664" stroke="black" stroke-width="2" stroke-miterlimit="10" stroke-linecap="round" stroke-linejoin="round"/>
<path d="M201.448 315.04C201.448 315.04 184.136 252.976 164.632 260.816C145.128 268.656 142.696 326.64 151.816 333.408C160.936 340.176 185.336 336.992 185.336 336.992L201.448 315.04Z" fill="white" stroke="black" stroke-width="2" stroke-miterlimit="10" stroke-linecap="round" stroke-linejoin="round"/>
<path d="M180.92 271.984C168.04 290.768 162.424 314.176 165.416 336.576" stroke="black" stroke-width="2" stroke-miterlimit="10" stroke-linecap="round" stroke-linejoin="round"/>
<path d="M206.68 307.36C206.68 307.36 251.208 259.824 258.456 275.232C265.704 290.64 222.824 337.92 214.504 341.216C206.184 344.512 193.048 335.92 193.048 335.92L206.68 307.36Z" fill="white" stroke="black" stroke-width="2" stroke-miterlimit="10" stroke-linecap="round" stroke-linejoin="round"/>
<path d="M247.48 274.528C241.944 301.04 225.416 325.184 202.456 340.32" stroke="black" stroke-width="2" stroke-miterlimit="10" stroke-linecap="round" stroke-linejoin="round"/>
<path d="M200.84 312.064C200.84 312.064 174.424 346.432 180.824 351.168C187.224 355.904 206.264 314.368 206.264 314.368" fill="white"/>
<path d="M200.84 312.064C200.84 312.064 174.424 346.432 180.824 351.168C187.224 355.904 206.264 314.368 206.264 314.368" stroke="black" stroke-width="2" stroke-miterlimit="10" stroke-linecap="round" stroke-linejoin="round"/>
<path d="M206.968 317.088C211.598 317.088 215.352 313.42 215.352 308.896C215.352 304.372 211.598 300.704 206.968 300.704C202.338 300.704 198.584 304.372 198.584 308.896C198.584 313.42 202.338 317.088 206.968 317.088Z" fill="white" stroke="black" stroke-width="2" stroke-miterlimit="10" stroke-linecap="round" stroke-linejoin="round"/>
<path d="M661.448 336.08C661.448 336.08 660.696 355.696 653.448 357.696C646.2 359.696 637.288 339.952 639.016 333.648C640.76 327.344 654.104 320.256 654.104 320.256L661.448 336.08Z" fill="white" stroke="black" stroke-width="2" stroke-miterlimit="10" stroke-linecap="round" stroke-linejoin="round"/>
<path d="M657.08 354.16C649.16 347.968 644.568 337.904 645.128 328.048" stroke="black" stroke-width="2" stroke-miterlimit="10" stroke-linecap="round" stroke-linejoin="round"/>
<path d="M658.984 324.72C658.984 324.72 692.712 327.392 697.416 335.92C701.8 343.856 698.408 354.048 692.12 356.88C682.104 361.392 661.544 335.408 661.544 335.408" fill="white"/>
<path d="M658.984 324.72C658.984 324.72 692.712 327.392 697.416 335.92C701.8 343.856 698.408 354.048 692.12 356.88C682.104 361.392 661.544 335.408 661.544 335.408" stroke="black" stroke-width="2" stroke-miterlimit="10" stroke-linecap="round" stroke-linejoin="round"/>
<path d="M688.328 330.304C690.664 338.64 687.912 348.112 681.448 353.968" stroke="black" stroke-width="2" stroke-miterlimit="10" stroke-linecap="round" stroke-linejoin="round"/>
<path d="M648.136 303.088C648.136 303.088 672.6 243.488 691.048 253.552C709.496 263.616 705.128 321.504 695.272 327.152C685.416 332.8 661.56 326.768 661.56 326.768L648.136 303.088Z" fill="white" stroke="black" stroke-width="2" stroke-miterlimit="10" stroke-linecap="round" stroke-linejoin="round"/>
<path d="M673.576 262.72C684.168 282.88 687 306.784 681.4 328.688" stroke="black" stroke-width="2" stroke-miterlimit="10" stroke-linecap="round" stroke-linejoin="round"/>
<path d="M643.848 294.832C643.848 294.832 605.192 242.4 596.2 256.864C587.192 271.312 624.232 323.296 632.104 327.552C639.976 331.808 654.024 324.8 654.024 324.8L643.848 294.832Z" fill="white" stroke="black" stroke-width="2" stroke-miterlimit="10" stroke-linecap="round" stroke-linejoin="round"/>
<path d="M607.192 257.456C609.576 284.432 623.16 310.352 644.2 328.08" stroke="black" stroke-width="2" stroke-miterlimit="10" stroke-linecap="round" stroke-linejoin="round"/>
<path d="M649.096 300.192C649.096 300.192 671.304 337.424 664.392 341.36C657.48 345.312 643.448 301.84 643.448 301.84" fill="white"/>
<path d="M649.096 300.192C649.096 300.192 671.304 337.424 664.392 341.36C657.48 345.312 643.448 301.84 643.448 301.84" stroke="black" stroke-width="2" stroke-miterlimit="10" stroke-linecap="round" stroke-linejoin="round"/>
<path d="M635.029 295.326C635.558 290.834 639.717 287.63 644.315 288.173C648.914 288.715 652.211 292.798 651.682 297.291C651.152 301.784 646.994 304.987 642.395 304.445C637.797 303.901 634.498 299.819 635.029 295.326Z" fill="white" stroke="black" stroke-width="2" stroke-miterlimit="10" stroke-linecap="round" stroke-linejoin="round"/>
<path d="M345.544 415.232C345.544 415.232 329.448 447.856 337.704 489.424C348.328 542.928 334.744 546.736 326.904 576.384C320.984 598.768 347.224 696.464 352.296 701.536C360.248 709.488 389.32 706.112 398.424 700.896C407.544 695.68 381.384 612.064 384.808 596.032C387.992 581.104 412.568 570.064 422.264 524.672C426.888 503.008 424.728 469.232 424.728 469.232" fill="white"/>
<path d="M345.544 415.232C345.544 415.232 329.448 447.856 337.704 489.424C348.328 542.928 334.744 546.736 326.904 576.384C320.984 598.768 347.224 696.464 352.296 701.536C360.248 709.488 389.32 706.112 398.424 700.896C407.544 695.68 381.384 612.064 384.808 596.032C387.992 581.104 412.568 570.064 422.264 524.672C426.888 503.008 424.728 469.232 424.728 469.232" stroke="black" stroke-width="2" stroke-miterlimit="10" stroke-linecap="round" stroke-linejoin="round"/>
<path d="M341.88 670.192C359.48 675.952 378.632 676.912 396.728 672.928" stroke="black" stroke-width="2" stroke-miterlimit="10" stroke-linecap="round" stroke-linejoin="round"/>
<path d="M320.328 383.104C307.496 387.92 302.536 392.832 292.952 397.184C286.184 400.256 278.68 403.056 271.48 401.216C264.28 399.376 258.488 390.816 262.168 384.352C254.808 386.672 249.08 393.52 248.088 401.184C244.776 396.384 244.232 389.808 246.68 384.528C237.832 389.44 231.64 398.88 230.68 408.96C229.704 419.04 233.992 429.488 241.752 435.984C236.76 435.68 231.976 432.864 229.304 428.656C229.656 438.608 235.016 448.256 243.272 453.824C251.528 459.392 262.488 460.72 271.832 457.312" fill="white"/>
<path d="M320.328 383.104C307.496 387.92 302.536 392.832 292.952 397.184C286.184 400.256 278.68 403.056 271.48 401.216C264.28 399.376 258.488 390.816 262.168 384.352C254.808 386.672 249.08 393.52 248.088 401.184C244.776 396.384 244.232 389.808 246.68 384.528C237.832 389.44 231.64 398.88 230.68 408.96C229.704 419.04 233.992 429.488 241.752 435.984C236.76 435.68 231.976 432.864 229.304 428.656C229.656 438.608 235.016 448.256 243.272 453.824C251.528 459.392 262.488 460.72 271.832 457.312" stroke="black" stroke-width="2" stroke-miterlimit="10" stroke-linecap="round" stroke-linejoin="round"/>
<path d="M500.04 475.408C500.04 475.408 497.368 580.208 498.856 598.8C500.344 617.392 520.68 697.376 515.928 702.128C511.176 706.88 479.512 707.728 474.52 703.76C469.72 699.936 450.568 622.496 447.896 604.112C445.032 584.448 436.84 515.2 436.84 515.2" fill="white"/>
<path d="M500.04 475.408C500.04 475.408 497.368 580.208 498.856 598.8C500.344 617.392 520.68 697.376 515.928 702.128C511.176 706.88 479.512 707.728 474.52 703.76C469.72 699.936 450.568 622.496 447.896 604.112C445.032 584.448 436.84 515.2 436.84 515.2" stroke="black" stroke-width="2" stroke-miterlimit="10" stroke-linecap="round" stroke-linejoin="round"/>
<path d="M466.52 680.032C482.152 683.392 498.312 684.24 514.2 682.528" stroke="black" stroke-width="2" stroke-miterlimit="10" stroke-linecap="round" stroke-linejoin="round"/>
<path d="M449.4 385.232C427.4 378.064 404.712 372.384 381.592 371.456C358.472 370.528 334.776 374.576 314.584 385.856C294.376 397.136 277.992 416.128 272.552 438.624C267.112 461.104 273.752 486.8 291.304 501.872C304.088 512.864 321.08 517.536 337.688 520.448C368.168 525.792 399.48 526.304 430.12 521.936C446.04 519.664 462.104 515.968 475.832 507.584C489.56 499.216 497.944 491.472 503.88 472.72" fill="white"/>
<path d="M449.4 385.232C427.4 378.064 404.712 372.384 381.592 371.456C358.472 370.528 334.776 374.576 314.584 385.856C294.376 397.136 277.992 416.128 272.552 438.624C267.112 461.104 273.752 486.8 291.304 501.872C304.088 512.864 321.08 517.536 337.688 520.448C368.168 525.792 399.48 526.304 430.12 521.936C446.04 519.664 462.104 515.968 475.832 507.584C489.56 499.216 497.944 491.472 503.88 472.72" stroke="black" stroke-width="2" stroke-miterlimit="10" stroke-linecap="round" stroke-linejoin="round"/>
<path d="M434.456 389.056C447.192 372.08 452.648 349.808 449.4 327.648C471.704 319.184 494.728 312.672 524.296 308.816C529.096 365.92 521.448 424.032 502.056 477.952" fill="white"/>
<path d="M434.456 389.056C447.192 372.08 452.648 349.808 449.4 327.648C471.704 319.184 494.728 312.672 524.296 308.816C529.096 365.92 521.448 424.032 502.056 477.952" stroke="black" stroke-width="2" stroke-miterlimit="10" stroke-linecap="round" stroke-linejoin="round"/>
<path d="M437.144 161.856C437.144 161.856 420.088 133.184 434.936 103.232C450.36 72.112 492.408 50.96 504.056 57.936C519.64 67.248 524.68 106.112 514.648 132.416C506.392 154.064 488.28 169.632 488.28 169.632" fill="white"/>
<path d="M437.144 161.856C437.144 161.856 420.088 133.184 434.936 103.232C450.36 72.112 492.408 50.96 504.056 57.936C519.64 67.248 524.68 106.112 514.648 132.416C506.392 154.064 488.28 169.632 488.28 169.632" stroke="black" stroke-width="2" stroke-miterlimit="10" stroke-linecap="round" stroke-linejoin="round"/>
<path d="M397.976 178.576C404.376 179.024 415.272 177.92 423.992 167.456C425.576 165.568 425.672 162.832 424.168 160.88C418.12 153.008 402.088 133.216 394.904 134.512C387.88 135.776 390.456 161.712 391.896 172.784C392.312 175.904 394.84 178.368 397.976 178.576Z" fill="white" stroke="black" stroke-width="2" stroke-miterlimit="10" stroke-linecap="round" stroke-linejoin="round"/>
<path d="M513.992 332.624C513.992 332.624 581.592 303.216 554.104 219.12C528.376 140.416 436.52 151.088 404.088 170.464C381.272 184.096 342.808 221.232 364.616 295.648C364.616 295.648 352.744 296.72 355.336 308.992C357.912 321.264 382.392 358.864 476.344 347.296" fill="white"/>
<path d="M513.992 332.624C513.992 332.624 581.592 303.216 554.104 219.12C528.376 140.416 436.52 151.088 404.088 170.464C381.272 184.096 342.808 221.232 364.616 295.648C364.616 295.648 352.744 296.72 355.336 308.992C357.912 321.264 382.392 358.864 476.344 347.296" stroke="black" stroke-width="2" stroke-miterlimit="10" stroke-linecap="round" stroke-linejoin="round"/>
<path d="M486.312 178.432C491.304 182.464 500.872 187.792 514.008 184.208C516.392 183.552 518.04 181.376 517.928 178.912C517.464 169.008 515.656 143.584 509.032 140.544C502.552 137.552 489.816 160.304 484.648 170.192C483.192 172.992 483.864 176.448 486.312 178.432Z" fill="white" stroke="black" stroke-width="2" stroke-miterlimit="10" stroke-linecap="round" stroke-linejoin="round"/>
<path d="M522.328 181.92C522.328 181.92 534.296 150.784 567.016 143.904C601 136.752 643.64 156.704 645.384 170.16C647.72 188.176 620.312 216.176 593.432 224.576C571.32 231.488 547.864 226.896 547.864 226.896" fill="white"/>
<path d="M522.328 181.92C522.328 181.92 534.296 150.784 567.016 143.904C601 136.752 643.64 156.704 645.384 170.16C647.72 188.176 620.312 216.176 593.432 224.576C571.32 231.488 547.864 226.896 547.864 226.896" stroke="black" stroke-width="2" stroke-miterlimit="10" stroke-linecap="round" stroke-linejoin="round"/>
<path d="M541.912 207.968C540.488 203.376 542.264 198.416 546.392 195.504C553.736 190.32 562.568 186.912 571.768 185.792C580.872 184.688 590.264 185.84 599.24 189.568C604.232 191.648 605.4 197.744 601.512 201.28C595.736 206.56 588.2 210.304 580.36 212.624C571.352 215.28 561.896 216.256 552.424 216.88C548.232 217.168 544.408 214.8 543.016 211.184C542.632 210.16 542.264 209.088 541.912 207.968Z" fill="white" stroke="black" stroke-width="2" stroke-miterlimit="10" stroke-linecap="round" stroke-linejoin="round"/>
<path d="M351.64 299.92C352.008 294.272 360.872 289.312 370.84 291.504C379.944 293.52 387.416 298.528 387.032 304.16C386.76 308.32 373.944 310.176 367.256 310.864C364.52 311.152 361.784 310.528 359.4 309.056C355.944 306.912 351.416 303.424 351.64 299.92Z" fill="white" stroke="black" stroke-width="2" stroke-miterlimit="10" stroke-linecap="round" stroke-linejoin="round"/>
<path d="M432.184 310.944C440.862 310.944 447.896 304.318 447.896 296.144C447.896 287.97 440.862 281.344 432.184 281.344C423.507 281.344 416.472 287.97 416.472 296.144C416.472 304.318 423.507 310.944 432.184 310.944Z" fill="black"/>
<path d="M428.744 298.128C432.279 298.128 435.144 295.427 435.144 292.096C435.144 288.765 432.279 286.064 428.744 286.064C425.209 286.064 422.344 288.765 422.344 292.096C422.344 295.427 425.209 298.128 428.744 298.128Z" fill="white"/>
<path d="M380.456 518.656C380.456 518.656 363.976 577.024 360.152 600.752C356.328 624.48 364.424 706.656 370.216 711.28C376.024 715.904 407.752 716.576 412.248 711.104C416.744 705.632 409.832 626 412.696 612.384C415.544 598.768 441.4 524.432 443.896 512.544" fill="white"/>
<path d="M380.456 518.656C380.456 518.656 363.976 577.024 360.152 600.752C356.328 624.48 364.424 706.656 370.216 711.28C376.024 715.904 407.752 716.576 412.248 711.104C416.744 705.632 409.832 626 412.696 612.384C415.544 598.768 441.4 524.432 443.896 512.544" stroke="black" stroke-width="2" stroke-miterlimit="10" stroke-linecap="round" stroke-linejoin="round"/>
<path d="M363.544 678.112C379.768 682.624 396.84 684.064 413.592 682.32" stroke="black" stroke-width="2" stroke-miterlimit="10" stroke-linecap="round" stroke-linejoin="round"/>
<path d="M277.864 423.936C277.864 423.936 261.768 456.56 270.024 498.128C280.648 551.632 267.064 555.44 259.224 585.088C253.304 607.472 279.544 705.168 284.616 710.24C292.568 718.192 321.64 714.816 330.744 709.6C339.848 704.384 313.704 620.768 317.128 604.736C320.312 589.808 344.888 578.768 354.584 533.376C359.208 511.712 357.048 477.936 357.048 477.936" fill="white"/>
<path d="M277.864 423.936C277.864 423.936 261.768 456.56 270.024 498.128C280.648 551.632 267.064 555.44 259.224 585.088C253.304 607.472 279.544 705.168 284.616 710.24C292.568 718.192 321.64 714.816 330.744 709.6C339.848 704.384 313.704 620.768 317.128 604.736C320.312 589.808 344.888 578.768 354.584 533.376C359.208 511.712 357.048 477.936 357.048 477.936" stroke="black" stroke-width="2" stroke-miterlimit="10" stroke-linecap="round" stroke-linejoin="round"/>
<path d="M275.032 679.936C292.632 683.968 311.224 683.6 328.664 678.912" stroke="black" stroke-width="2" stroke-miterlimit="10" stroke-linecap="round" stroke-linejoin="round"/>
<path d="M533.287 2C528.967 17.648 530.375 40.808 540.903 53.16C551.431 65.512 572.343 69.128 584.167 58.008C593.319 77.192 612.359 91.304 633.367 94.488C654.375 97.64 676.743 89.784 691.143 74.168C699.687 86.68 719.959 88.744 730.855 78.232C739.287 88.92 751.607 96.456 764.967 99.096C776.919 101.464 791.447 98.712 797.159 87.96C800.023 82.584 800.135 76.2 800.183 70.104C800.327 51.688 800.856 20.432 801 2C710.5 2 619.607 3.744 533.287 2Z" fill="white" stroke="black" stroke-width="2" stroke-miterlimit="10" stroke-linecap="round" stroke-linejoin="round"/>
<path d="M631 8C631 8 657.368 147.376 802.504 178.448L803.8 121.328C803.8 121.328 677.528 115.072 649.688 9.968" fill="white"/>
<path d="M631 8C631 8 657.368 147.376 802.504 178.448L803.8 121.328C803.8 121.328 677.528 115.072 649.688 9.968" stroke="black" stroke-width="2" stroke-miterlimit="10" stroke-linecap="round" stroke-linejoin="round"/>
<path d="M1 62.5702C12.6062 79.1846 31.8156 90.5976 52.3497 93.0686C72.8838 95.5396 94.3828 89.0277 109.834 75.6761C122.318 89.5737 141.614 97.4509 160.593 96.386C179.572 95.3212 197.788 85.3553 208.544 70.147C227.091 84.072 257.518 78.9798 270.19 59.8398C280.083 73.3962 296.527 82.2426 313.605 83.2119C330.698 84.1949 348.079 77.2733 359.555 64.9456C372.717 79.9764 394.892 86.9662 414.634 82.3109C434.391 77.6556 450.792 61.5873 455.386 42.379C466.387 49.6691 482.198 49.2186 492.753 41.3142C503.309 33.4097 505.478 13.0893 501 2.48179C335 1 173 2.48178 1.4176 1C1.2592 21.5325 1.1152 42.065 1 62.5702Z" fill="white" stroke="black" stroke-width="2" stroke-miterlimit="10" stroke-linecap="round" stroke-linejoin="round"/>
<path d="M324.76 96.992C324.76 96.992 417.336 93.648 442.776 5.488L449.736 2C449.736 2 438.648 96.864 310.488 123.072" fill="white"/>
<path d="M324.76 96.992C324.76 96.992 417.336 93.648 442.776 5.488L449.736 2C449.736 2 438.648 96.864 310.488 123.072" stroke="black" stroke-width="2" stroke-miterlimit="10" stroke-linecap="round" stroke-linejoin="round"/>
<path d="M35 216.832C35 216.832 37.48 189.904 50.408 178.096C50.408 178.096 159.448 193.616 240.392 146.064C299.128 111.552 338.296 68.384 353 2H368.264C368.264 2 346.808 106.016 261.224 167.888C190.2 219.248 105.512 244.112 46.056 248.896" fill="white" stroke="black" stroke-width="2" stroke-miterlimit="10" stroke-linecap="round" stroke-linejoin="round"/>
<path d="M148.568 127.552C144.504 114.672 136.776 102.96 126.536 94.16C124.376 92.304 122.04 90.544 119.288 89.808C116.536 89.072 113.288 89.6 111.432 91.744C109.496 93.968 109.512 97.392 110.712 100.08C111.912 102.768 114.056 104.912 116.184 106.944C124.6 115.024 133.368 122.736 142.424 130.096C131.928 121.472 119.976 114.656 107.288 109.792C102.6 107.984 96.9041 106.576 92.9041 109.616C89.7041 112.048 88.8561 116.784 90.2641 120.544C91.6881 124.304 94.9681 127.12 98.6001 128.832C102.232 130.544 106.232 131.312 110.184 132.048C120.648 134 131.128 135.968 141.592 137.92C143.976 135.136 146.376 132.336 148.568 127.552Z" fill="white" stroke="black" stroke-width="2" stroke-miterlimit="10" stroke-linecap="round" stroke-linejoin="round"/>
<path d="M173.368 103.504C173.368 103.504 146.6 108.672 140.568 128.544C136.184 143.024 142.504 171.312 173.176 171.312C203.848 171.312 241.128 155.872 229.512 116.448L173.368 103.504Z" fill="white" stroke="black" stroke-width="2" stroke-miterlimit="10" stroke-linecap="round" stroke-linejoin="round"/>
<path d="M164.6 187.888C160.696 183.776 157.688 178.512 157.592 172.848C157.496 167.184 160.952 161.264 166.392 159.744C171.08 158.432 176.312 160.592 179.448 164.32C182.584 168.048 183.864 173.072 183.912 177.936C183.944 180.512 183.576 183.264 181.88 185.2C180.184 187.136 176.792 187.728 175.08 185.808C174.76 187.808 173.192 189.552 171.256 190.096C169.304 190.624 166.808 190.208 164.6 187.888Z" fill="white" stroke="black" stroke-width="2" stroke-miterlimit="10" stroke-linecap="round" stroke-linejoin="round"/>
<path d="M175.144 185.952C173.896 180.608 172.264 175.36 170.264 170.24" stroke="black" stroke-width="2" stroke-miterlimit="10" stroke-linecap="round" stroke-linejoin="round"/>
<path d="M210.952 173.568C207.896 168.8 205.928 163.04 206.904 157.472C207.88 151.888 212.376 146.736 218.024 146.256C222.888 145.84 227.592 148.96 229.976 153.216C232.36 157.472 232.648 162.64 231.784 167.44C231.32 169.968 230.44 172.608 228.408 174.192C226.376 175.776 222.936 175.712 221.624 173.504C220.936 175.408 219.064 176.816 217.048 176.992C215.048 177.152 212.68 176.272 210.952 173.568Z" fill="white" stroke="black" stroke-width="2" stroke-miterlimit="10" stroke-linecap="round" stroke-linejoin="round"/>
<path d="M221.672 173.648C223.48 169.088 223.032 161.488 219.448 155.712" stroke="black" stroke-width="2" stroke-miterlimit="10" stroke-linecap="round" stroke-linejoin="round"/>
<path d="M188.488 129.872C187.016 139.024 181.608 147.664 173.544 152.24C165.464 156.816 154.808 156.864 147.128 151.648C139.448 146.432 135.576 135.92 138.776 127.2C139.608 124.944 141.112 122.656 143.448 122.128C146.136 121.52 148.84 123.584 149.896 126.128C150.968 128.656 150.808 131.52 150.632 134.272" fill="white"/>
<path d="M188.488 129.872C187.016 139.024 181.608 147.664 173.544 152.24C165.464 156.816 154.808 156.864 147.128 151.648C139.448 146.432 135.576 135.92 138.776 127.2C139.608 124.944 141.112 122.656 143.448 122.128C146.136 121.52 148.84 123.584 149.896 126.128C150.968 128.656 150.808 131.52 150.632 134.272" stroke="black" stroke-width="2" stroke-miterlimit="10" stroke-linecap="round" stroke-linejoin="round"/>
<path d="M149.816 123.808C151.96 120.736 156.664 120.304 159.928 122.176C163.176 124.048 165.112 127.6 166.104 131.232" fill="white"/>
<path d="M149.816 123.808C151.96 120.736 156.664 120.304 159.928 122.176C163.176 124.048 165.112 127.6 166.104 131.232" stroke="black" stroke-width="2" stroke-miterlimit="10" stroke-linecap="round" stroke-linejoin="round"/>
<path d="M145.352 78.336C147.096 51.216 175.72 22.944 209.528 25.12C243.336 27.296 270.296 58.304 268.552 85.424C266.808 112.544 236.856 125.488 203.048 123.312C169.24 121.136 143.608 105.472 145.352 78.336Z" fill="white" stroke="black" stroke-width="2" stroke-miterlimit="10" stroke-linecap="round" stroke-linejoin="round"/>
<path d="M189.56 102.272C194.862 102.272 199.16 98.2246 199.16 93.232C199.16 88.2393 194.862 84.192 189.56 84.192C184.258 84.192 179.96 88.2393 179.96 93.232C179.96 98.2246 184.258 102.272 189.56 102.272Z" fill="black"/>
<path d="M187.448 94.432C189.604 94.432 191.352 92.7844 191.352 90.752C191.352 88.7196 189.604 87.072 187.448 87.072C185.292 87.072 183.544 88.7196 183.544 90.752C183.544 92.7844 185.292 94.432 187.448 94.432Z" fill="white"/>
<path d="M245.128 99.968C250.43 99.968 254.728 95.9207 254.728 90.928C254.728 85.9353 250.43 81.888 245.128 81.888C239.826 81.888 235.528 85.9353 235.528 90.928C235.528 95.9207 239.826 99.968 245.128 99.968Z" fill="black"/>
<path d="M243.016 92.128C245.172 92.128 246.92 90.4804 246.92 88.448C246.92 86.4156 245.172 84.768 243.016 84.768C240.86 84.768 239.112 86.4156 239.112 88.448C239.112 90.4804 240.86 92.128 243.016 92.128Z" fill="white"/>
<path d="M207.336 100.944C205.816 96.752 211.944 87.264 220.04 87.856C228.136 88.448 233.512 98.736 231.288 100.944C229.064 103.168 208.744 104.864 207.336 100.944Z" fill="white" stroke="black" stroke-width="2" stroke-miterlimit="10" stroke-linecap="round" stroke-linejoin="round"/>
<path d="M188.152 27.792C197.304 25.6 199.864 19.136 204.408 14.592C209.176 8.192 221.016 11.92 216.44 19.936C230.936 12.528 241.08 29.888 227.8 31.696C236.136 30.544 236.472 41.776 227.592 40.752" fill="white"/>
<path d="M188.152 27.792C197.304 25.6 199.864 19.136 204.408 14.592C209.176 8.192 221.016 11.92 216.44 19.936C230.936 12.528 241.08 29.888 227.8 31.696C236.136 30.544 236.472 41.776 227.592 40.752" stroke="black" stroke-width="2" stroke-miterlimit="10" stroke-linecap="round" stroke-linejoin="round"/>
</svg>
