<?xml version="1.0" encoding="UTF-8" standalone="no"?>
<!-- Created with Inkscape (http://www.inkscape.org/) -->

<svg
   width="29.369797mm"
   height="28.422701mm"
   viewBox="0 0 29.369797 28.422701"
   version="1.1"
   id="svg1"
   xml:space="preserve"
   xmlns:inkscape="http://www.inkscape.org/namespaces/inkscape"
   xmlns:sodipodi="http://sodipodi.sourceforge.net/DTD/sodipodi-0.dtd"
   xmlns="http://www.w3.org/2000/svg"
   xmlns:svg="http://www.w3.org/2000/svg"><sodipodi:namedview
     id="namedview1"
     pagecolor="#ffffff"
     bordercolor="#000000"
     borderopacity="0.25"
     inkscape:showpageshadow="2"
     inkscape:pageopacity="0.0"
     inkscape:pagecheckerboard="0"
     inkscape:deskcolor="#d1d1d1"
     inkscape:document-units="mm"><inkscape:page
       x="-7.2673839e-13"
       y="0"
       width="29.369799"
       height="28.422701"
       id="page2"
       margin="0"
       bleed="0" /></sodipodi:namedview><defs
     id="defs1" /><g
     inkscape:label="Layer 1"
     inkscape:groupmode="layer"
     id="layer1"
     transform="translate(-155.40849,-108.6858)"><g
       style="fill:none"
       id="g1"
       transform="matrix(0.26458333,0,0,0.26458333,-1.6931851,42.165946)"><path
         d="m 661.448,336.08 c 0,0 -0.752,19.616 -8,21.616 -7.248,2 -16.16,-17.744 -14.432,-24.048 1.744,-6.304 15.088,-13.392 15.088,-13.392 z"
         fill="#ffffff"
         stroke="#000000"
         stroke-width="2"
         stroke-miterlimit="10"
         stroke-linecap="round"
         stroke-linejoin="round"
         id="path103" /><path
         d="m 657.08,354.16 c -7.92,-6.192 -12.512,-16.256 -11.952,-26.112"
         stroke="#000000"
         stroke-width="2"
         stroke-miterlimit="10"
         stroke-linecap="round"
         stroke-linejoin="round"
         id="path104" /><path
         d="m 658.984,324.72 c 0,0 33.728,2.672 38.432,11.2 4.384,7.936 0.992,18.128 -5.296,20.96 -10.016,4.512 -30.576,-21.472 -30.576,-21.472"
         fill="#ffffff"
         id="path105" /><path
         d="m 658.984,324.72 c 0,0 33.728,2.672 38.432,11.2 4.384,7.936 0.992,18.128 -5.296,20.96 -10.016,4.512 -30.576,-21.472 -30.576,-21.472"
         stroke="#000000"
         stroke-width="2"
         stroke-miterlimit="10"
         stroke-linecap="round"
         stroke-linejoin="round"
         id="path106" /><path
         d="m 688.328,330.304 c 2.336,8.336 -0.416,17.808 -6.88,23.664"
         stroke="#000000"
         stroke-width="2"
         stroke-miterlimit="10"
         stroke-linecap="round"
         stroke-linejoin="round"
         id="path107" /><path
         d="m 648.136,303.088 c 0,0 24.464,-59.6 42.912,-49.536 18.448,10.064 14.08,67.952 4.224,73.6 -9.856,5.648 -33.712,-0.384 -33.712,-0.384 z"
         fill="#ffffff"
         stroke="#000000"
         stroke-width="2"
         stroke-miterlimit="10"
         stroke-linecap="round"
         stroke-linejoin="round"
         id="path108" /><path
         d="m 673.576,262.72 c 10.592,20.16 13.424,44.064 7.824,65.968"
         stroke="#000000"
         stroke-width="2"
         stroke-miterlimit="10"
         stroke-linecap="round"
         stroke-linejoin="round"
         id="path109" /><path
         d="m 643.848,294.832 c 0,0 -38.656,-52.432 -47.648,-37.968 -9.008,14.448 28.032,66.432 35.904,70.688 7.872,4.256 21.92,-2.752 21.92,-2.752 z"
         fill="#ffffff"
         stroke="#000000"
         stroke-width="2"
         stroke-miterlimit="10"
         stroke-linecap="round"
         stroke-linejoin="round"
         id="path110"
         inkscape:export-filename="path110.svg"
         inkscape:export-xdpi="96"
         inkscape:export-ydpi="96" /><path
         d="m 607.192,257.456 c 2.384,26.976 15.968,52.896 37.008,70.624"
         stroke="#000000"
         stroke-width="2"
         stroke-miterlimit="10"
         stroke-linecap="round"
         stroke-linejoin="round"
         id="path111" /><path
         d="m 649.096,300.192 c 0,0 22.208,37.232 15.296,41.168 -6.912,3.952 -20.944,-39.52 -20.944,-39.52"
         fill="#ffffff"
         id="path112" /><path
         d="m 649.096,300.192 c 0,0 22.208,37.232 15.296,41.168 -6.912,3.952 -20.944,-39.52 -20.944,-39.52"
         stroke="#000000"
         stroke-width="2"
         stroke-miterlimit="10"
         stroke-linecap="round"
         stroke-linejoin="round"
         id="path113" /><path
         d="m 635.029,295.326 c 0.529,-4.492 4.688,-7.696 9.286,-7.153 4.599,0.542 7.896,4.625 7.367,9.118 -0.53,4.493 -4.688,7.696 -9.287,7.154 -4.598,-0.544 -7.897,-4.626 -7.366,-9.119 z"
         fill="#ffffff"
         stroke="#000000"
         stroke-width="2"
         stroke-miterlimit="10"
         stroke-linecap="round"
         stroke-linejoin="round"
         id="path114" /></g></g></svg>
